<svg viewBox="0 0 100 125" xmlns="http://www.w3.org/2000/svg"><path d="m18.11 63a3.57 3.57 0 0 1 3.28-3.57l12.7-1.07 6.64-15.94a4.73 4.73 0 0 1 4.77-2.87 4.68 4.68 0 0 1 4.17 3.71l5.22 24.74 10.51-47.82a4.69 4.69 0 0 1 4.49-3.69 4.64 4.64 0 0 1 4.65 3.51l10.21 38.53 10.86 1.05a3.62 3.62 0 0 1 -.08 7.21l-14.37 1.11a4.71 4.71 0 0 1 -4.58-3.5l-6.16-23.24-11 50.17a4.73 4.73 0 0 1 -4.63 3.67 4.7 4.7 0 0 1 -4.58-3.71l-6.62-31.29-2 4.84a4.69 4.69 0 0 1 -4.34 2.89l-15.8-1.15a3.6 3.6 0 0 1 -3.34-3.58zm2.3-15.45h8.75a4.65 4.65 0 1 0 0-9.29h-8.75a4.65 4.65 0 0 0 0 9.29zm30.45-25.92h-30.45a4.65 4.65 0 0 0 0 9.29h30.45a4.65 4.65 0 1 0 0-9.29zm0-16.63h-30.45a4.65 4.65 0 0 0 0 9.29h30.45a4.65 4.65 0 1 0 0-9.29zm-45.07 0a4.65 4.65 0 1 0 4.65 4.65 4.65 4.65 0 0 0 -4.65-4.65zm0 16.64a4.65 4.65 0 1 0 4.65 4.65 4.65 4.65 0 0 0 -4.65-4.66zm0 16.64a4.65 4.65 0 1 0 4.65 4.65 4.65 4.65 0 0 0 -4.65-4.65z"/></svg>